<?xml version="1.0" encoding="utf-8"?>
<!-- Generator: Adobe Illustrator 26.1.0, SVG Export Plug-In . SVG Version: 6.00 Build 0)  -->
<svg version="1.1" id="Capa_1" xmlns="http://www.w3.org/2000/svg" xmlns:xlink="http://www.w3.org/1999/xlink" x="0px" y="0px"
	 viewBox="0 0 316 80.21" style="enable-background:new 0 0 316 80.21;" xml:space="preserve">
<style type="text/css">
	.st0{fill:#001E96;}
	.st1{fill:#FFFFFF;}
	
		.st2{clip-path:url(#SVGID_00000171696791652938231300000003693488276403134338_);fill:url(#SVGID_00000061446274400664196810000011633143226913139847_);}
	
		.st3{clip-path:url(#SVGID_00000131334321304537860300000004932577307681548426_);fill:url(#SVGID_00000152249403382918250430000005159135406476312995_);}
	
		.st4{clip-path:url(#SVGID_00000106128777522390848140000013297964115662552456_);fill:url(#SVGID_00000013884380198341314400000001994778326408647315_);}
</style>
<g>
	<g>
		<path class="st0" d="M47.16,71.81c-0.58,0-1.12,0.09-1.62,0.25c-0.49,0.17-0.93,0.42-1.29,0.76c-0.37,0.34-0.66,0.78-0.86,1.3
			c-0.21,0.52-0.31,1.15-0.31,1.87c0,0.65,0.1,1.24,0.29,1.76c0.19,0.51,0.47,0.95,0.84,1.32c0.37,0.36,0.82,0.64,1.36,0.84
			c0.54,0.2,1.16,0.29,1.84,0.29c0.63,0,1.2-0.08,1.68-0.24c0.48-0.16,0.88-0.34,1.18-0.54c0.43-0.28,0.64-0.65,0.64-1.12v-8.04
			c0-0.26-0.03-0.47-0.09-0.62c-0.05-0.14-0.13-0.25-0.23-0.33c-0.11-0.08-0.24-0.14-0.4-0.17c-0.37-0.07-0.87-0.07-1.32,0.01
			c-0.15,0.03-0.27,0.05-0.37,0.07v2.89L48.23,72c-0.12-0.05-0.28-0.1-0.47-0.13C47.56,71.83,47.36,71.81,47.16,71.81 M47.42,78.31
			c-0.61,0-1.09-0.2-1.42-0.6c-0.32-0.39-0.48-0.96-0.48-1.7c0-0.76,0.18-1.33,0.52-1.72c0.35-0.39,0.85-0.59,1.5-0.59
			c0.34,0,0.64,0.08,0.88,0.23l0.09,0.05v3.92l-0.06,0.05c-0.1,0.09-0.25,0.18-0.42,0.25C47.84,78.28,47.64,78.31,47.42,78.31"/>
		<path class="st0" d="M38,73.7c0.37,0,0.67,0.1,0.9,0.29c0.23,0.2,0.35,0.51,0.35,0.91v4c0,0.26,0.03,0.47,0.09,0.62
			c0.06,0.14,0.14,0.26,0.24,0.34s0.24,0.14,0.4,0.17c0.37,0.07,0.88,0.06,1.31,0c0.14-0.02,0.26-0.04,0.36-0.06V74.8
			c0-0.95-0.3-1.66-0.93-2.19c-0.63-0.53-1.55-0.8-2.73-0.8c-0.67,0-1.28,0.08-1.82,0.25c-0.54,0.16-0.99,0.38-1.34,0.63
			c-0.2,0.14-0.36,0.3-0.47,0.48c-0.11,0.16-0.16,0.38-0.16,0.65v5.09c0,0.26,0.03,0.47,0.09,0.62c0.06,0.14,0.14,0.26,0.24,0.34
			c0.11,0.08,0.24,0.14,0.4,0.17c0.37,0.07,0.88,0.06,1.32,0c0.14-0.02,0.26-0.04,0.36-0.06v-5.84l0.08-0.06
			c0.17-0.13,0.37-0.22,0.61-0.28C37.53,73.73,37.76,73.7,38,73.7"/>
		<path class="st0" d="M28.33,73.6c0.56,0,0.98,0.08,1.29,0.23c0.34,0.17,0.52,0.47,0.52,0.87v0.29l-2.31,0.26
			c-0.89,0.1-1.56,0.34-1.97,0.73c-0.41,0.39-0.61,0.93-0.61,1.66c0,0.43,0.08,0.81,0.25,1.14c0.17,0.32,0.4,0.59,0.71,0.8
			c0.31,0.21,0.7,0.38,1.13,0.48c0.45,0.11,0.96,0.16,1.52,0.16c1.25,0,2.22-0.21,2.9-0.63c0.2-0.13,0.38-0.28,0.52-0.45
			c0.13-0.15,0.19-0.35,0.19-0.6v-3.8c0-0.5-0.09-0.94-0.26-1.3c-0.17-0.36-0.42-0.66-0.74-0.9c-0.32-0.24-0.72-0.42-1.18-0.54
			c-0.78-0.2-1.7-0.24-2.76-0.1c-0.41,0.05-0.77,0.14-1.08,0.26c-0.25,0.11-0.44,0.24-0.55,0.39c-0.11,0.14-0.17,0.34-0.17,0.59
			c0,0.2,0.04,0.39,0.13,0.57c0.06,0.14,0.14,0.25,0.22,0.33c0.3-0.12,0.63-0.22,0.99-0.31C27.48,73.65,27.91,73.6,28.33,73.6
			 M28.85,78.48c-0.45,0-0.77-0.08-0.98-0.25c-0.21-0.18-0.32-0.41-0.32-0.69c0-0.29,0.13-0.52,0.39-0.67
			c0.22-0.13,0.5-0.2,0.83-0.23l1.38-0.12v1.66l-0.09,0.05c-0.13,0.08-0.32,0.14-0.56,0.19C29.27,78.46,29.05,78.48,28.85,78.48"/>
		<path class="st0" d="M23.18,71.83c-0.31,0-0.62,0.03-0.92,0.07c-0.3,0.05-0.6,0.12-0.89,0.21c-0.29,0.09-0.56,0.19-0.8,0.3
			c-0.24,0.11-0.44,0.24-0.61,0.37c-0.15,0.13-0.27,0.28-0.35,0.44c-0.08,0.16-0.12,0.36-0.12,0.59v5.09c0,0.26,0.03,0.46,0.09,0.62
			c0.06,0.14,0.14,0.26,0.24,0.34c0.11,0.08,0.24,0.14,0.4,0.17c0.37,0.07,0.88,0.06,1.31,0c0.14-0.02,0.26-0.04,0.36-0.06v-5.76
			L22,74.16c0.15-0.07,0.34-0.14,0.55-0.19c0.2-0.05,0.42-0.1,0.66-0.15c0.23-0.05,0.48-0.08,0.72-0.1c0.2-0.02,0.41-0.03,0.6-0.03
			c0.04-0.09,0.07-0.18,0.1-0.28c0.04-0.13,0.06-0.28,0.06-0.41c0-0.41-0.12-0.7-0.38-0.87C24.04,71.93,23.66,71.83,23.18,71.83"/>
		<path class="st0" d="M14.16,69.74c-0.7,0-1.38,0.11-2.04,0.33c-0.66,0.22-1.25,0.55-1.75,0.99c-0.51,0.44-0.92,1-1.23,1.66
			c-0.31,0.66-0.47,1.45-0.47,2.35c0,0.85,0.14,1.61,0.43,2.25c0.28,0.64,0.67,1.18,1.15,1.61c0.48,0.43,1.06,0.75,1.73,0.96
			c0.91,0.29,1.94,0.39,3.02,0.27c0.29-0.03,0.57-0.08,0.84-0.14c0.27-0.06,0.51-0.13,0.73-0.21c0.22-0.08,0.4-0.16,0.54-0.25
			c0.24-0.14,0.41-0.29,0.52-0.44c0.1-0.14,0.15-0.36,0.15-0.67v-3.46c0-0.29-0.07-0.51-0.22-0.66c-0.15-0.15-0.35-0.22-0.63-0.22
			h-2.76c-0.23,0-0.42,0.07-0.56,0.22c-0.14,0.14-0.22,0.4-0.22,0.75c0,0.21,0.03,0.41,0.08,0.59c0.04,0.14,0.08,0.26,0.13,0.36
			h1.82v1.89l-0.09,0.05c-0.11,0.07-0.27,0.12-0.47,0.17c-0.2,0.05-0.43,0.07-0.68,0.07c-0.39,0-0.77-0.06-1.11-0.19
			c-0.35-0.13-0.67-0.32-0.93-0.58c-0.27-0.26-0.48-0.6-0.64-1c-0.15-0.4-0.23-0.87-0.23-1.42c0-1.01,0.29-1.81,0.86-2.39
			c0.57-0.58,1.35-0.87,2.32-0.87c0.53,0,1.02,0.09,1.45,0.26c0.36,0.15,0.68,0.3,0.94,0.45c0.13-0.1,0.24-0.23,0.35-0.39
			c0.12-0.18,0.18-0.41,0.18-0.66c0-0.49-0.27-0.87-0.81-1.19C15.96,69.91,15.16,69.74,14.16,69.74"/>
		<path class="st0" d="M56.24,71.81c-0.49,0-0.98,0.08-1.45,0.24c-0.46,0.16-0.88,0.4-1.24,0.72c-0.36,0.33-0.66,0.75-0.88,1.26
			c-0.22,0.51-0.34,1.13-0.34,1.85c0,0.73,0.11,1.37,0.34,1.91c0.22,0.54,0.53,0.99,0.92,1.34c0.39,0.35,0.85,0.62,1.37,0.8
			c0.85,0.29,1.81,0.35,2.93,0.17c0.41-0.06,0.79-0.19,1.12-0.37c0.4-0.22,0.59-0.53,0.59-0.97c0-0.19-0.05-0.37-0.15-0.55
			c-0.08-0.14-0.18-0.26-0.29-0.35c-0.25,0.14-0.55,0.26-0.91,0.37c-0.87,0.26-1.93,0.27-2.68-0.11c-0.42-0.21-0.69-0.53-0.83-0.95
			l-0.07-0.21l4.25-0.66c0.33-0.05,0.59-0.17,0.77-0.34c0.17-0.17,0.26-0.41,0.26-0.75c0-0.49-0.09-0.95-0.27-1.37
			c-0.18-0.42-0.43-0.78-0.76-1.07c-0.32-0.3-0.72-0.54-1.17-0.71C57.3,71.9,56.79,71.81,56.24,71.81 M54.52,75.45l0.01-0.23
			c0.01-0.2,0.05-0.39,0.12-0.58c0.07-0.2,0.17-0.38,0.3-0.53c0.14-0.16,0.31-0.29,0.53-0.4c0.22-0.1,0.47-0.15,0.76-0.15
			c0.46,0,0.81,0.13,1.05,0.4c0.23,0.25,0.37,0.51,0.41,0.78l0.03,0.18L54.52,75.45z"/>
		<path class="st0" d="M61.5,79.94h5.34c0.23,0,0.41-0.07,0.54-0.21c0.13-0.14,0.2-0.38,0.2-0.73c0-0.21-0.03-0.4-0.08-0.57
			c-0.04-0.13-0.08-0.25-0.13-0.35H63.9l2.99-3.73c0.14-0.18,0.26-0.37,0.36-0.58c0.09-0.2,0.14-0.39,0.14-0.59
			c0-0.24-0.05-0.46-0.14-0.65c-0.08-0.17-0.19-0.32-0.32-0.45h-5.08c-0.23,0-0.41,0.07-0.55,0.21c-0.13,0.14-0.2,0.38-0.2,0.73
			c0,0.21,0.03,0.4,0.08,0.57c0.04,0.13,0.08,0.25,0.13,0.35h3.29l-3.06,3.73c-0.14,0.18-0.26,0.38-0.36,0.58
			c-0.09,0.19-0.14,0.39-0.14,0.59c0,0.24,0.05,0.46,0.14,0.65C61.25,79.66,61.36,79.81,61.5,79.94"/>
		<path class="st0" d="M71.56,73.6c0.56,0,0.98,0.08,1.29,0.23c0.34,0.17,0.52,0.47,0.52,0.87v0.29l-2.31,0.26
			c-0.89,0.1-1.56,0.34-1.97,0.73c-0.41,0.39-0.61,0.93-0.61,1.66c0,0.43,0.08,0.81,0.25,1.14c0.17,0.32,0.4,0.59,0.71,0.8
			c0.31,0.21,0.7,0.38,1.13,0.48c0.45,0.11,0.96,0.16,1.52,0.16c1.25,0,2.22-0.21,2.9-0.63c0.2-0.13,0.38-0.28,0.52-0.45
			c0.13-0.15,0.19-0.35,0.19-0.6v-3.8c0-0.5-0.09-0.94-0.26-1.3c-0.17-0.36-0.42-0.66-0.74-0.9c-0.32-0.24-0.72-0.42-1.18-0.54
			c-0.77-0.2-1.7-0.24-2.76-0.1c-0.41,0.05-0.77,0.14-1.08,0.26c-0.25,0.11-0.44,0.24-0.55,0.39c-0.11,0.14-0.17,0.34-0.17,0.59
			c0,0.2,0.04,0.39,0.13,0.57c0.07,0.14,0.14,0.25,0.22,0.33c0.3-0.12,0.63-0.22,0.99-0.31C70.72,73.65,71.14,73.6,71.56,73.6
			 M72.09,78.48c-0.45,0-0.77-0.08-0.98-0.25c-0.21-0.18-0.32-0.41-0.32-0.69c0-0.29,0.13-0.52,0.39-0.67
			c0.22-0.13,0.5-0.2,0.83-0.23l1.38-0.12v1.66l-0.09,0.05c-0.13,0.08-0.32,0.14-0.56,0.19C72.5,78.46,72.28,78.48,72.09,78.48"/>
		<path class="st0" d="M84.13,71.81c-0.58,0-1.12,0.09-1.62,0.25c-0.49,0.17-0.92,0.42-1.29,0.76c-0.37,0.34-0.66,0.78-0.86,1.3
			c-0.21,0.52-0.31,1.15-0.31,1.87c0,0.65,0.1,1.24,0.29,1.76c0.19,0.51,0.47,0.95,0.84,1.32c0.37,0.36,0.82,0.64,1.36,0.84
			c0.54,0.2,1.16,0.29,1.84,0.29c0.63,0,1.19-0.08,1.68-0.24c0.48-0.16,0.88-0.34,1.18-0.54c0.43-0.28,0.64-0.65,0.64-1.12v-8.04
			c0-0.26-0.03-0.47-0.09-0.62c-0.05-0.14-0.13-0.25-0.24-0.33c-0.11-0.08-0.24-0.14-0.4-0.17c-0.37-0.07-0.87-0.07-1.32,0.01
			c-0.15,0.03-0.27,0.05-0.37,0.07v2.89L85.2,72c-0.12-0.05-0.28-0.1-0.47-0.13C84.53,71.83,84.33,71.81,84.13,71.81 M84.39,78.31
			c-0.61,0-1.09-0.2-1.42-0.6c-0.32-0.39-0.48-0.96-0.48-1.7c0-0.76,0.18-1.34,0.52-1.72c0.35-0.39,0.85-0.59,1.49-0.59
			c0.34,0,0.64,0.08,0.88,0.23l0.09,0.05v3.92l-0.06,0.06c-0.1,0.09-0.25,0.18-0.42,0.25C84.81,78.28,84.61,78.31,84.39,78.31"/>
		<path class="st0" d="M93.21,71.81c-0.49,0-0.98,0.08-1.45,0.24c-0.47,0.16-0.88,0.4-1.24,0.72c-0.36,0.33-0.66,0.75-0.88,1.26
			c-0.22,0.51-0.34,1.14-0.34,1.85c0,0.73,0.11,1.37,0.34,1.91c0.22,0.54,0.53,0.99,0.92,1.34c0.39,0.35,0.85,0.62,1.37,0.8
			c0.85,0.29,1.81,0.35,2.93,0.17c0.41-0.06,0.79-0.19,1.12-0.37c0.4-0.22,0.59-0.53,0.59-0.97c0-0.19-0.05-0.37-0.15-0.55
			c-0.08-0.14-0.18-0.26-0.29-0.35c-0.25,0.14-0.55,0.26-0.91,0.37c-0.87,0.26-1.93,0.27-2.68-0.11c-0.42-0.21-0.69-0.53-0.83-0.95
			l-0.07-0.21l4.25-0.66c0.33-0.05,0.59-0.17,0.77-0.34c0.17-0.17,0.26-0.42,0.26-0.75c0-0.49-0.09-0.95-0.27-1.37
			c-0.18-0.42-0.43-0.78-0.76-1.07c-0.32-0.3-0.72-0.54-1.17-0.71C94.27,71.9,93.76,71.81,93.21,71.81 M91.49,75.45l0.01-0.23
			c0.01-0.2,0.05-0.39,0.12-0.58c0.07-0.2,0.17-0.38,0.3-0.54c0.14-0.16,0.32-0.29,0.53-0.4c0.22-0.1,0.47-0.15,0.76-0.15
			c0.45,0,0.81,0.13,1.05,0.4c0.23,0.25,0.37,0.51,0.41,0.78l0.03,0.18L91.49,75.45z"/>
		<path class="st0" d="M109.21,73.19h0.4l0.01,0.18c0.03,0.66,0.06,1.49,0.07,2.48c0.02,0.98,0.06,2.1,0.12,3.32
			c0.02,0.36,0.14,0.59,0.36,0.71c0.26,0.13,0.58,0.2,0.96,0.2c0.3,0,0.54-0.02,0.73-0.07c0.15-0.04,0.3-0.1,0.44-0.17
			c-0.01-0.26-0.03-0.61-0.06-1.05c-0.03-0.5-0.07-1.05-0.12-1.66l-0.16-1.89c-0.05-0.65-0.11-1.28-0.16-1.86
			c-0.05-0.59-0.11-1.12-0.16-1.58c-0.05-0.46-0.09-0.8-0.14-1.03c-0.04-0.25-0.2-0.43-0.49-0.57c-0.31-0.15-0.72-0.23-1.23-0.23
			c-0.3,0-0.57,0.03-0.81,0.09c-0.21,0.05-0.38,0.11-0.52,0.18c-0.21,0.59-0.44,1.31-0.69,2.15c-0.26,0.89-0.52,1.8-0.78,2.75
			l-0.04,0.14h-0.36l-0.33-1.13c-0.11-0.37-0.22-0.74-0.33-1.11c-0.11-0.37-0.23-0.73-0.34-1.08c-0.11-0.35-0.22-0.66-0.32-0.93
			c-0.14-0.38-0.35-0.64-0.64-0.81c-0.3-0.17-0.72-0.25-1.27-0.25c-0.5,0-0.89,0.08-1.15,0.23c-0.29,0.17-0.42,0.29-0.48,0.37
			l-0.47,8.6c0,0.34,0.1,0.57,0.31,0.69c0.24,0.14,0.58,0.21,1.03,0.21c0.22,0,0.44-0.02,0.65-0.06c0.16-0.03,0.3-0.06,0.41-0.09
			c0.03-0.6,0.05-1.14,0.07-1.64c0.02-0.53,0.03-1.05,0.03-1.57c0.01-0.52,0.02-1.06,0.03-1.61c0.02-0.55,0.04-1.16,0.07-1.83
			l0.01-0.18h0.4l0.03,0.14c0.11,0.45,0.26,1,0.45,1.61c0.2,0.62,0.45,1.42,0.75,2.42c0.06,0.19,0.19,0.33,0.39,0.41
			c0.23,0.09,0.54,0.14,0.9,0.14c0.27,0,0.52-0.03,0.72-0.1c0.18-0.06,0.33-0.13,0.44-0.23c0.28-1,0.53-1.84,0.74-2.51
			c0.2-0.66,0.36-1.21,0.47-1.65L109.21,73.19z"/>
		<path class="st0" d="M117.45,71.81c-0.49,0-0.98,0.08-1.45,0.24c-0.47,0.16-0.88,0.4-1.24,0.72c-0.36,0.33-0.66,0.75-0.88,1.26
			c-0.22,0.51-0.34,1.14-0.34,1.85c0,0.73,0.11,1.37,0.34,1.91c0.22,0.54,0.53,0.99,0.92,1.34c0.39,0.35,0.85,0.62,1.37,0.8
			c0.85,0.29,1.81,0.35,2.93,0.17c0.41-0.06,0.79-0.19,1.12-0.37c0.4-0.22,0.59-0.53,0.59-0.97c0-0.19-0.05-0.37-0.15-0.55
			c-0.08-0.14-0.18-0.26-0.29-0.35c-0.25,0.14-0.55,0.26-0.91,0.37c-0.86,0.26-1.92,0.27-2.68-0.11c-0.41-0.21-0.69-0.53-0.83-0.95
			l-0.07-0.21l4.25-0.66c0.33-0.05,0.59-0.17,0.77-0.34c0.17-0.17,0.26-0.42,0.26-0.75c0-0.49-0.09-0.95-0.27-1.37
			c-0.18-0.42-0.43-0.78-0.76-1.07c-0.32-0.3-0.72-0.54-1.17-0.71C118.51,71.9,118,71.81,117.45,71.81 M115.73,75.45l0.01-0.23
			c0.01-0.2,0.05-0.39,0.12-0.58c0.07-0.2,0.17-0.38,0.3-0.54c0.14-0.16,0.32-0.29,0.53-0.4c0.22-0.1,0.47-0.15,0.76-0.15
			c0.46,0,0.81,0.13,1.05,0.4c0.23,0.25,0.37,0.51,0.41,0.78l0.03,0.18L115.73,75.45z M117.8,67.69l-2.17,1.64
			c-0.13,0.1-0.22,0.2-0.27,0.3c-0.05,0.11-0.08,0.22-0.08,0.33c0,0.22,0.1,0.43,0.29,0.64c0.19,0.19,0.4,0.31,0.66,0.34l2.06-1.13
			c0.32-0.18,0.56-0.36,0.69-0.54c0.13-0.17,0.19-0.37,0.19-0.62c0-0.26-0.11-0.48-0.32-0.68C118.64,67.8,118.29,67.7,117.8,67.69"
			/>
		<path class="st0" d="M125.61,77.44l1.04,1.53c0.22,0.33,0.45,0.61,0.69,0.84c0.21,0.21,0.5,0.31,0.87,0.32
			c0.33,0,0.61-0.11,0.85-0.33c0.23-0.2,0.36-0.48,0.42-0.83l-2.19-2.99l1.17-1.37l0.42-0.55c0.11-0.15,0.21-0.29,0.28-0.41
			c0.07-0.11,0.12-0.22,0.15-0.32c0.03-0.1,0.05-0.21,0.05-0.34c0-0.31-0.14-0.55-0.44-0.73c-0.3-0.19-0.71-0.29-1.23-0.3
			l-1.84,2.59l-1.2-1.63c-0.23-0.32-0.44-0.56-0.63-0.74c-0.16-0.15-0.4-0.22-0.71-0.22c-0.33,0-0.6,0.11-0.82,0.35
			c-0.21,0.23-0.37,0.52-0.45,0.88l2.23,2.71l-1.41,1.69c-0.3,0.36-0.51,0.64-0.63,0.83c-0.11,0.18-0.16,0.39-0.16,0.63
			c0,0.3,0.12,0.54,0.37,0.74c0.25,0.21,0.64,0.31,1.15,0.31c0.04,0,0.09,0,0.15-0.01c0.03,0,0.07-0.01,0.1-0.01L125.61,77.44z"/>
		<path class="st0" d="M130.77,72.16v6.75c0,0.26,0.03,0.46,0.09,0.62c0.06,0.14,0.14,0.26,0.24,0.34c0.11,0.08,0.24,0.14,0.4,0.17
			c0.36,0.06,0.85,0.07,1.29-0.01c0.15-0.02,0.27-0.05,0.38-0.06v-6.75c0-0.26-0.03-0.46-0.09-0.62c-0.06-0.15-0.14-0.26-0.24-0.34
			c-0.11-0.08-0.24-0.14-0.4-0.17c-0.36-0.06-0.85-0.07-1.29,0.01C131,72.12,130.87,72.14,130.77,72.16"/>
		<path class="st1" d="M131.97,68.25c-0.41,0-0.73,0.13-0.97,0.38c-0.25,0.26-0.37,0.57-0.37,0.96c0,0.38,0.12,0.7,0.37,0.96
			c0.24,0.26,0.56,0.38,0.97,0.38c0.41,0,0.73-0.13,0.97-0.38c0.25-0.26,0.37-0.57,0.37-0.96c0-0.38-0.12-0.7-0.37-0.96
			C132.7,68.38,132.38,68.25,131.97,68.25"/>
		<path class="st0" d="M138.85,71.81c-0.57,0-1.11,0.09-1.62,0.26c-0.5,0.17-0.95,0.43-1.33,0.78c-0.38,0.34-0.69,0.79-0.91,1.32
			c-0.22,0.53-0.34,1.17-0.34,1.89c0,0.62,0.11,1.19,0.31,1.69c0.21,0.5,0.5,0.94,0.88,1.3c0.38,0.36,0.84,0.64,1.37,0.84
			c0.53,0.2,1.14,0.3,1.8,0.3c0.71,0,1.28-0.12,1.67-0.36c0.37-0.22,0.55-0.52,0.55-0.92c0-0.23-0.05-0.42-0.14-0.58
			c-0.08-0.14-0.2-0.27-0.35-0.39c-0.17,0.08-0.36,0.15-0.56,0.21c-0.26,0.09-0.56,0.13-0.91,0.13c-0.6,0-1.12-0.19-1.54-0.57
			c-0.43-0.39-0.64-0.96-0.64-1.71c0-0.37,0.06-0.71,0.18-0.99c0.12-0.28,0.28-0.52,0.48-0.71c0.2-0.19,0.43-0.34,0.7-0.44
			c0.55-0.2,1.22-0.18,1.75-0.01c0.21,0.07,0.4,0.14,0.57,0.21c0.08-0.1,0.16-0.22,0.23-0.34c0.08-0.16,0.13-0.33,0.13-0.52
			c0-0.4-0.18-0.72-0.56-0.98C140.16,71.95,139.59,71.81,138.85,71.81"/>
		<path class="st0" d="M146.17,71.81c-0.62,0-1.18,0.1-1.68,0.29c-0.5,0.19-0.93,0.47-1.29,0.83c-0.36,0.36-0.64,0.8-0.83,1.32
			c-0.2,0.52-0.3,1.11-0.3,1.75c0,0.65,0.1,1.25,0.3,1.77c0.2,0.51,0.48,0.96,0.83,1.32c0.35,0.36,0.79,0.64,1.29,0.83
			c0.5,0.19,1.06,0.29,1.68,0.29c0.62,0,1.19-0.09,1.69-0.28c0.5-0.18,0.93-0.45,1.28-0.81c0.36-0.35,0.64-0.8,0.83-1.32
			c0.2-0.52,0.3-1.13,0.3-1.81c0-0.63-0.1-1.21-0.3-1.73c-0.2-0.52-0.48-0.96-0.83-1.32c-0.36-0.36-0.79-0.64-1.29-0.84
			C147.36,71.92,146.79,71.81,146.17,71.81 M146.19,78.33c-0.52,0-0.93-0.21-1.22-0.63c-0.28-0.4-0.42-0.97-0.42-1.69
			c0-0.71,0.14-1.28,0.41-1.67c0.29-0.42,0.7-0.63,1.22-0.63c0.52,0,0.93,0.21,1.22,0.63c0.27,0.4,0.41,0.96,0.41,1.67
			s-0.13,1.28-0.4,1.68C147.12,78.11,146.71,78.33,146.19,78.33"/>
		<path class="st0" d="M54.21,49.42c0,4.11-1.87,5.66-4.31,7.02c-4.12,2.22-10.57,3.75-17.6,3.75C10.05,60.19,0,46.57,0,30.79
			C0,12.84,13.14,0.36,32.49,0.36c7.79,0,14.73,1.73,18.06,6.25c1.91,2.59,1.97,8.04-2.8,11.08c-4.26-2.38-8.73-4.12-13.76-4.12
			c-14.75,0-17.13,11.39-17.13,16.95c-0.01,9.18,4.53,13.82,9.64,15.59c5.59,1.93,10.32,0.73,12.08-0.23v-8.8H28.56
			c-0.37-0.69-2-4.07-1.47-8.01c0.27-2.02,1.52-4.63,5.4-4.63h15.82c4.38,0,5.9,2.97,5.9,5.9V49.42z"/>
		<path class="st0" d="M161.66,30.42c0,16.66-13.54,30.17-30.24,30.17c-16.7,0-30.24-13.51-30.24-30.17
			c0-16.66,13.54-30.17,30.24-30.17C148.12,0.25,161.66,13.75,161.66,30.42 M131.42,17.09c-7.53,0-13.63,6.01-13.63,13.43
			c0,7.42,6.1,13.43,13.63,13.43c7.53,0,13.63-6.01,13.63-13.43C145.05,23.1,138.95,17.09,131.42,17.09"/>
		<path class="st0" d="M70.94,59.23c3.84,0.85,9.65,1.47,13.12-0.03c2.16-0.93,3.31-2.92,3.31-6.49V15.02h11.39
			c6.5,0,6.57-7.57,6.08-13.37H61.89c-6.84,0-7.76,6.5-6.88,13.37h15.93V59.23z"/>
	</g>
	<g>
		<defs>
			<path id="SVGID_1_" d="M70.94,59.22c3.84,0.85,9.65,1.47,13.12-0.03c2.16-0.93,3.31-2.92,3.31-6.49v-2.43
				c-4.47,0-14.32-6.33-16.43-12.6V59.22z"/>
		</defs>
		<clipPath id="SVGID_00000162315343743383383140000004816014635397391782_">
			<use xlink:href="#SVGID_1_"  style="overflow:visible;"/>
		</clipPath>
		
			<linearGradient id="SVGID_00000169528947043469005600000012739463365923588285_" gradientUnits="userSpaceOnUse" x1="-520.1468" y1="68.269" x2="-519.7016" y2="68.269" gradientTransform="matrix(45.7016 33.0942 33.0942 -45.7016 21580.1484 20374.9043)">
			<stop  offset="0" style="stop-color:#FF6400"/>
			<stop  offset="0.5416" style="stop-color:#FF9C1C"/>
			<stop  offset="1" style="stop-color:#FFC832"/>
		</linearGradient>
		
			<polygon style="clip-path:url(#SVGID_00000162315343743383383140000004816014635397391782_);fill:url(#SVGID_00000169528947043469005600000012739463365923588285_);" points="
			76.6,29.87 98.31,45.59 81.72,68.5 60.01,52.78 		"/>
	</g>
	<g>
		<defs>
			<path id="SVGID_00000072997708997956948760000010056922802458322868_" d="M0,30.79c0,15.78,10.05,29.4,32.3,29.4
				c7.03,0,13.48-1.53,17.6-3.75c0.39-0.22,0.76-0.44,1.12-0.68C28.13,53.45,9.46,36.85,4.07,15.01C1.44,19.5,0,24.85,0,30.79"/>
		</defs>
		<clipPath id="SVGID_00000137845365905957868900000015913207759798529932_">
			<use xlink:href="#SVGID_00000072997708997956948760000010056922802458322868_"  style="overflow:visible;"/>
		</clipPath>
		
			<linearGradient id="SVGID_00000160154694452832113370000014378039416511469494_" gradientUnits="userSpaceOnUse" x1="-520.1736" y1="69.2725" x2="-519.7284" y2="69.2725" gradientTransform="matrix(54.4907 54.4907 54.4907 -54.4907 24573.4023 32134.9082)">
			<stop  offset="0" style="stop-color:#006400"/>
			<stop  offset="1.322120e-03" style="stop-color:#006400"/>
			<stop  offset="0.7676" style="stop-color:#4BC84B"/>
			<stop  offset="1" style="stop-color:#4BC84B"/>
		</linearGradient>
		
			<polygon style="clip-path:url(#SVGID_00000137845365905957868900000015913207759798529932_);fill:url(#SVGID_00000160154694452832113370000014378039416511469494_);" points="
			25.51,-10.5 73.61,37.6 25.51,85.7 -22.59,37.6 		"/>
	</g>
	<g>
		<defs>
			<path id="SVGID_00000165203819320967377380000018072151134868392624_" d="M131.42,17.09c9.58,0.55,15.07,8.01,13.19,16.82
				c-2.33,10.9-14.79,19.92-32.25,19.93c14.56,11.99,37.04,7.69,45.97-9.65c1.41-2.75,1.81-7.92,0.65-13.77
				c-1.97-9.92-11.8-15.29-20.02-15.29C136.12,15.14,133.48,15.78,131.42,17.09"/>
		</defs>
		<clipPath id="SVGID_00000059279140231398987260000010568423690184756907_">
			<use xlink:href="#SVGID_00000165203819320967377380000018072151134868392624_"  style="overflow:visible;"/>
		</clipPath>
		
			<linearGradient id="SVGID_00000029018216495574976790000016720526252730168733_" gradientUnits="userSpaceOnUse" x1="-521.9141" y1="67.6615" x2="-521.4689" y2="67.6615" gradientTransform="matrix(64.1931 54.1261 54.1261 -64.1931 29963.4668 32621.4219)">
			<stop  offset="0" style="stop-color:#CD1EC2"/>
			<stop  offset="0.1396" style="stop-color:#CD1EC2"/>
			<stop  offset="0.1537" style="stop-color:#D022C4"/>
			<stop  offset="0.2735" style="stop-color:#E43CD2"/>
			<stop  offset="0.3954" style="stop-color:#F350DC"/>
			<stop  offset="0.5198" style="stop-color:#FC5BE2"/>
			<stop  offset="0.6503" style="stop-color:#FF5FE4"/>
			<stop  offset="1" style="stop-color:#FF5FE4"/>
		</linearGradient>
		
			<polygon style="clip-path:url(#SVGID_00000059279140231398987260000010568423690184756907_);fill:url(#SVGID_00000029018216495574976790000016720526252730168733_);" points="
			132.21,-8.4 185.12,36.21 140.29,89.38 87.38,44.77 		"/>
	</g>
	<g>
		<path class="st0" d="M174.81,9.98c-0.57-0.2-1.1-0.39-1.57-0.6c-0.47-0.2-0.88-0.45-1.21-0.73c-0.34-0.29-0.6-0.63-0.79-1.03
			c-0.19-0.4-0.28-0.88-0.28-1.46c0-1.11,0.43-2,1.28-2.66s2.05-1,3.59-1c0.56,0,1.08,0.04,1.57,0.12c0.48,0.08,0.9,0.2,1.24,0.36
			c0.35,0.16,0.62,0.37,0.81,0.63c0.2,0.25,0.29,0.55,0.29,0.89c0,0.34-0.08,0.63-0.23,0.87c-0.16,0.24-0.35,0.45-0.57,0.62
			c-0.29-0.18-0.67-0.34-1.16-0.48c-0.48-0.14-1.01-0.21-1.59-0.21c-0.59,0-1.02,0.08-1.29,0.24c-0.27,0.16-0.41,0.37-0.41,0.62
			c0,0.2,0.08,0.36,0.25,0.48c0.17,0.12,0.42,0.24,0.76,0.34l1.04,0.33c1.23,0.39,2.17,0.89,2.83,1.5c0.66,0.61,0.99,1.43,0.99,2.48
			c0,1.11-0.44,2.01-1.31,2.69c-0.87,0.69-2.16,1.03-3.86,1.03c-0.6,0-1.16-0.05-1.67-0.15c-0.52-0.1-0.97-0.24-1.35-0.43
			c-0.39-0.19-0.69-0.42-0.9-0.71c-0.22-0.28-0.32-0.6-0.32-0.97c0-0.38,0.11-0.7,0.33-0.97c0.22-0.27,0.46-0.47,0.72-0.62
			c0.37,0.29,0.81,0.54,1.34,0.74c0.53,0.21,1.11,0.31,1.73,0.31c0.64,0,1.09-0.1,1.35-0.29c0.26-0.2,0.39-0.42,0.39-0.69
			c0-0.26-0.1-0.46-0.31-0.6c-0.21-0.14-0.5-0.27-0.88-0.4L174.81,9.98z"/>
		<path class="st0" d="M187.06,15.01c-0.77,0-1.49-0.11-2.14-0.32c-0.66-0.22-1.23-0.54-1.72-0.97c-0.49-0.43-0.88-0.97-1.16-1.63
			c-0.28-0.65-0.42-1.42-0.42-2.29c0-0.86,0.14-1.6,0.42-2.22c0.28-0.62,0.65-1.13,1.11-1.53c0.46-0.4,0.98-0.69,1.57-0.88
			c0.59-0.19,1.19-0.28,1.8-0.28c0.69,0,1.32,0.1,1.89,0.31c0.57,0.21,1.06,0.5,1.47,0.86c0.41,0.37,0.73,0.8,0.96,1.31
			c0.23,0.51,0.34,1.06,0.34,1.67c0,0.44-0.12,0.78-0.37,1.02c-0.25,0.24-0.59,0.39-1.04,0.45l-4.84,0.72
			c0.14,0.43,0.44,0.75,0.88,0.97c0.44,0.22,0.95,0.32,1.53,0.32c0.54,0,1.04-0.07,1.52-0.21c0.48-0.14,0.86-0.3,1.17-0.48
			c0.21,0.13,0.38,0.31,0.53,0.55c0.14,0.23,0.22,0.48,0.22,0.74c0,0.59-0.27,1.03-0.82,1.31c-0.42,0.22-0.89,0.37-1.41,0.45
			C188,14.97,187.51,15.01,187.06,15.01z M186.51,7.31c-0.31,0-0.58,0.05-0.81,0.16c-0.23,0.1-0.41,0.24-0.56,0.4
			c-0.14,0.16-0.25,0.35-0.32,0.55c-0.07,0.2-0.11,0.41-0.13,0.62l3.35-0.55c-0.04-0.26-0.18-0.52-0.43-0.78
			C187.36,7.44,186.99,7.31,186.51,7.31z"/>
		<path class="st0" d="M198.15,7.51c-0.33,0-0.64,0.05-0.93,0.16c-0.29,0.1-0.55,0.26-0.76,0.46c-0.22,0.2-0.39,0.45-0.52,0.75
			c-0.13,0.3-0.2,0.65-0.2,1.06c0,0.81,0.23,1.42,0.7,1.82c0.46,0.4,1.03,0.61,1.69,0.61c0.39,0,0.73-0.05,1.02-0.14
			c0.29-0.09,0.54-0.19,0.76-0.29c0.26,0.18,0.46,0.38,0.59,0.6c0.13,0.22,0.2,0.47,0.2,0.77c0,0.54-0.25,0.95-0.76,1.24
			c-0.51,0.29-1.21,0.44-2.12,0.44c-0.82,0-1.57-0.12-2.23-0.36c-0.67-0.24-1.24-0.58-1.71-1.02c-0.48-0.44-0.85-0.96-1.11-1.58
			c-0.26-0.61-0.39-1.29-0.39-2.04c0-0.86,0.14-1.62,0.42-2.26s0.66-1.18,1.15-1.6c0.48-0.42,1.04-0.73,1.68-0.94
			c0.63-0.21,1.3-0.31,2.01-0.31c0.94,0,1.67,0.17,2.17,0.51c0.51,0.34,0.76,0.78,0.76,1.31c0,0.25-0.06,0.48-0.18,0.7
			c-0.12,0.22-0.25,0.4-0.41,0.56c-0.22-0.1-0.49-0.21-0.8-0.3C198.85,7.56,198.51,7.51,198.15,7.51z"/>
		<path class="st0" d="M205.69,14.68c-0.13,0.04-0.34,0.08-0.62,0.12c-0.28,0.04-0.57,0.06-0.87,0.06c-0.29,0-0.55-0.02-0.77-0.06
			c-0.23-0.04-0.42-0.12-0.58-0.24c-0.16-0.12-0.28-0.28-0.36-0.48c-0.09-0.2-0.13-0.47-0.13-0.79V7.41c0-0.3,0.06-0.56,0.17-0.77
			c0.11-0.22,0.27-0.41,0.48-0.58c0.21-0.17,0.47-0.32,0.77-0.46c0.31-0.14,0.64-0.26,0.99-0.36c0.35-0.1,0.72-0.19,1.1-0.24
			c0.38-0.06,0.76-0.09,1.14-0.09c0.63,0,1.12,0.12,1.49,0.36c0.37,0.24,0.55,0.64,0.55,1.19c0,0.18-0.03,0.36-0.08,0.54
			c-0.05,0.18-0.12,0.34-0.2,0.48c-0.27,0-0.56,0.01-0.84,0.04c-0.29,0.03-0.57,0.07-0.84,0.12c-0.27,0.05-0.53,0.11-0.77,0.17
			c-0.24,0.06-0.45,0.13-0.62,0.21V14.68z"/>
		<path class="st0" d="M215.07,15.01c-0.77,0-1.49-0.11-2.14-0.32c-0.66-0.22-1.23-0.54-1.72-0.97c-0.49-0.43-0.88-0.97-1.16-1.63
			c-0.28-0.65-0.42-1.42-0.42-2.29c0-0.86,0.14-1.6,0.42-2.22c0.28-0.62,0.65-1.13,1.11-1.53c0.46-0.4,0.98-0.69,1.57-0.88
			c0.59-0.19,1.19-0.28,1.8-0.28c0.69,0,1.32,0.1,1.89,0.31c0.57,0.21,1.06,0.5,1.47,0.86c0.41,0.37,0.73,0.8,0.96,1.31
			c0.23,0.51,0.34,1.06,0.34,1.67c0,0.44-0.12,0.78-0.37,1.02c-0.25,0.24-0.59,0.39-1.04,0.45l-4.84,0.72
			c0.14,0.43,0.44,0.75,0.88,0.97c0.44,0.22,0.95,0.32,1.53,0.32c0.54,0,1.04-0.07,1.52-0.21c0.48-0.14,0.86-0.3,1.17-0.48
			c0.21,0.13,0.38,0.31,0.53,0.55c0.14,0.23,0.22,0.48,0.22,0.74c0,0.59-0.27,1.03-0.82,1.31c-0.42,0.22-0.89,0.37-1.41,0.45
			C216.02,14.97,215.53,15.01,215.07,15.01z M214.52,7.31c-0.31,0-0.58,0.05-0.81,0.16c-0.23,0.1-0.41,0.24-0.56,0.4
			c-0.14,0.16-0.25,0.35-0.32,0.55c-0.07,0.2-0.11,0.41-0.13,0.62l3.35-0.55c-0.04-0.26-0.18-0.52-0.43-0.78
			C215.37,7.44,215.01,7.31,214.52,7.31z"/>
		<path class="st0" d="M224.12,11.43c0,0.34,0.11,0.58,0.32,0.72c0.22,0.14,0.52,0.22,0.91,0.22c0.2,0,0.4-0.02,0.61-0.05
			c0.21-0.03,0.39-0.07,0.55-0.13c0.12,0.14,0.22,0.3,0.3,0.48c0.08,0.18,0.13,0.39,0.13,0.64c0,0.5-0.19,0.9-0.56,1.21
			c-0.37,0.31-1.03,0.47-1.97,0.47c-1.15,0-2.03-0.26-2.65-0.78c-0.62-0.52-0.93-1.37-0.93-2.55V3.28c0.14-0.04,0.35-0.08,0.62-0.13
			c0.27-0.05,0.55-0.07,0.85-0.07c0.57,0,1.02,0.1,1.34,0.3c0.32,0.2,0.48,0.63,0.48,1.28v1.25h2.57c0.08,0.14,0.15,0.32,0.23,0.54
			c0.07,0.22,0.11,0.45,0.11,0.71c0,0.46-0.1,0.79-0.3,0.99c-0.2,0.2-0.47,0.3-0.81,0.3h-1.78V11.43z"/>
		<path class="st0" d="M232.54,4.88c0.71,0,1.35,0.07,1.93,0.22c0.58,0.14,1.08,0.36,1.49,0.66c0.41,0.29,0.73,0.67,0.95,1.12
			c0.22,0.45,0.33,0.98,0.33,1.6v4.39c0,0.34-0.1,0.62-0.28,0.83c-0.19,0.22-0.41,0.4-0.68,0.56c-0.85,0.51-2.04,0.76-3.58,0.76
			c-0.69,0-1.32-0.07-1.87-0.2c-0.56-0.13-1.03-0.33-1.43-0.59c-0.4-0.26-0.71-0.59-0.92-1c-0.22-0.4-0.32-0.87-0.32-1.41
			c0-0.9,0.27-1.59,0.8-2.08c0.54-0.48,1.36-0.78,2.49-0.9l2.57-0.27V8.43c0-0.38-0.17-0.65-0.5-0.81
			c-0.33-0.16-0.81-0.24-1.44-0.24c-0.5,0-0.98,0.05-1.45,0.16c-0.47,0.1-0.89,0.23-1.27,0.39c-0.17-0.12-0.31-0.3-0.43-0.54
			c-0.12-0.24-0.18-0.49-0.18-0.75c0-0.34,0.08-0.61,0.24-0.81c0.16-0.2,0.41-0.38,0.75-0.52c0.38-0.14,0.83-0.25,1.34-0.31
			C231.6,4.92,232.09,4.88,232.54,4.88z M232.7,12.58c0.22,0,0.47-0.02,0.73-0.07c0.27-0.05,0.47-0.11,0.6-0.19v-1.57l-1.41,0.12
			c-0.37,0.03-0.67,0.1-0.9,0.24c-0.24,0.13-0.35,0.33-0.35,0.59c0,0.26,0.1,0.47,0.3,0.64C231.87,12.5,232.22,12.58,232.7,12.58z"
			/>
		<path class="st0" d="M242.61,14.68c-0.13,0.04-0.34,0.08-0.62,0.12c-0.28,0.04-0.57,0.06-0.87,0.06c-0.29,0-0.55-0.02-0.77-0.06
			c-0.23-0.04-0.42-0.12-0.58-0.24c-0.16-0.12-0.28-0.28-0.36-0.48c-0.09-0.2-0.13-0.47-0.13-0.79V7.41c0-0.3,0.06-0.56,0.17-0.77
			c0.11-0.22,0.27-0.41,0.48-0.58c0.21-0.17,0.47-0.32,0.77-0.46c0.31-0.14,0.64-0.26,0.99-0.36c0.35-0.1,0.72-0.19,1.1-0.24
			c0.38-0.06,0.76-0.09,1.14-0.09c0.63,0,1.12,0.12,1.49,0.36c0.37,0.24,0.55,0.64,0.55,1.19c0,0.18-0.03,0.36-0.08,0.54
			c-0.05,0.18-0.12,0.34-0.2,0.48c-0.27,0-0.56,0.01-0.84,0.04c-0.29,0.03-0.57,0.07-0.84,0.12c-0.27,0.05-0.53,0.11-0.77,0.17
			c-0.24,0.06-0.45,0.13-0.62,0.21V14.68z"/>
		<path class="st0" d="M250.27,0.12c0.68,0,1.17,0.13,1.48,0.39c0.31,0.26,0.46,0.57,0.46,0.94c0,0.34-0.09,0.62-0.27,0.85
			c-0.18,0.23-0.48,0.45-0.9,0.68l-2.53,1.33c-0.39-0.04-0.72-0.2-1-0.47c-0.27-0.27-0.41-0.57-0.41-0.88
			c0-0.16,0.04-0.31,0.12-0.47c0.08-0.16,0.21-0.3,0.39-0.43L250.27,0.12z M250.74,14.68c-0.14,0.03-0.36,0.06-0.64,0.11
			c-0.28,0.05-0.56,0.07-0.85,0.07c-0.29,0-0.55-0.02-0.77-0.06c-0.23-0.04-0.42-0.12-0.58-0.24c-0.16-0.12-0.28-0.28-0.36-0.48
			c-0.09-0.2-0.13-0.47-0.13-0.79V5.31c0.14-0.03,0.36-0.06,0.64-0.11c0.28-0.05,0.56-0.07,0.85-0.07c0.29,0,0.55,0.02,0.77,0.06
			c0.23,0.04,0.42,0.12,0.58,0.23c0.16,0.12,0.28,0.28,0.36,0.48c0.08,0.2,0.13,0.47,0.13,0.79V14.68z"/>
		<path class="st0" d="M256.78,4.88c0.71,0,1.35,0.07,1.93,0.22c0.58,0.14,1.08,0.36,1.49,0.66c0.41,0.29,0.73,0.67,0.95,1.12
			c0.22,0.45,0.33,0.98,0.33,1.6v4.39c0,0.34-0.1,0.62-0.28,0.83c-0.19,0.22-0.41,0.4-0.68,0.56c-0.85,0.51-2.04,0.76-3.58,0.76
			c-0.69,0-1.32-0.07-1.87-0.2c-0.56-0.13-1.03-0.33-1.43-0.59c-0.4-0.26-0.71-0.59-0.92-1c-0.22-0.4-0.32-0.87-0.32-1.41
			c0-0.9,0.27-1.59,0.8-2.08c0.54-0.48,1.36-0.78,2.49-0.9l2.57-0.27V8.43c0-0.38-0.17-0.65-0.5-0.81
			c-0.33-0.16-0.81-0.24-1.44-0.24c-0.5,0-0.98,0.05-1.45,0.16c-0.47,0.1-0.89,0.23-1.27,0.39c-0.17-0.12-0.31-0.3-0.43-0.54
			c-0.12-0.24-0.18-0.49-0.18-0.75c0-0.34,0.08-0.61,0.24-0.81c0.16-0.2,0.41-0.38,0.75-0.52c0.38-0.14,0.83-0.25,1.34-0.31
			C255.83,4.92,256.32,4.88,256.78,4.88z M256.93,12.58c0.22,0,0.47-0.02,0.73-0.07c0.27-0.05,0.47-0.11,0.6-0.19v-1.57l-1.41,0.12
			c-0.37,0.03-0.67,0.1-0.9,0.24c-0.24,0.13-0.35,0.33-0.35,0.59c0,0.26,0.1,0.47,0.3,0.64C256.11,12.5,256.45,12.58,256.93,12.58z"
			/>
		<path class="st0" d="M170.78,29.53c0-0.86,0.13-1.61,0.39-2.24c0.26-0.63,0.62-1.16,1.09-1.58c0.46-0.42,1.01-0.73,1.63-0.93
			c0.62-0.2,1.29-0.3,2.01-0.3c0.26,0,0.52,0.02,0.76,0.07c0.25,0.05,0.45,0.1,0.61,0.17v-3.17c0.13-0.04,0.34-0.08,0.63-0.13
			c0.29-0.05,0.58-0.07,0.88-0.07c0.29,0,0.54,0.02,0.77,0.06c0.23,0.04,0.42,0.12,0.58,0.24c0.16,0.12,0.27,0.28,0.35,0.48
			c0.08,0.2,0.12,0.47,0.12,0.79v9.29c0,0.61-0.29,1.1-0.86,1.47c-0.38,0.25-0.87,0.47-1.47,0.66c-0.6,0.19-1.29,0.28-2.08,0.28
			c-0.85,0-1.61-0.12-2.28-0.35c-0.67-0.24-1.24-0.57-1.7-1.02c-0.46-0.44-0.82-0.98-1.06-1.6
			C170.9,31.01,170.78,30.31,170.78,29.53z M176.34,27.08c-0.71,0-1.25,0.2-1.63,0.61c-0.38,0.4-0.57,1.02-0.57,1.84
			c0,0.81,0.18,1.42,0.53,1.83c0.35,0.41,0.86,0.62,1.53,0.62c0.24,0,0.45-0.04,0.64-0.11c0.19-0.07,0.34-0.15,0.44-0.24v-4.31
			C177.02,27.16,176.71,27.08,176.34,27.08z"/>
		<path class="st0" d="M187.7,34.6c-0.77,0-1.49-0.11-2.14-0.32c-0.66-0.22-1.23-0.54-1.72-0.97c-0.49-0.43-0.88-0.97-1.16-1.63
			c-0.28-0.65-0.42-1.42-0.42-2.29c0-0.86,0.14-1.6,0.42-2.22c0.28-0.62,0.65-1.13,1.11-1.53c0.46-0.4,0.98-0.69,1.57-0.88
			c0.59-0.19,1.19-0.28,1.8-0.28c0.69,0,1.32,0.1,1.89,0.31c0.57,0.21,1.06,0.5,1.47,0.86c0.41,0.37,0.73,0.8,0.96,1.31
			c0.23,0.51,0.34,1.06,0.34,1.67c0,0.44-0.12,0.78-0.37,1.02c-0.25,0.24-0.59,0.39-1.04,0.45l-4.84,0.72
			c0.14,0.43,0.44,0.75,0.88,0.97c0.44,0.22,0.95,0.32,1.53,0.32c0.54,0,1.04-0.07,1.52-0.21c0.48-0.14,0.86-0.3,1.17-0.48
			c0.21,0.13,0.38,0.31,0.53,0.55c0.14,0.23,0.22,0.48,0.22,0.74c0,0.59-0.27,1.03-0.82,1.31c-0.42,0.22-0.89,0.37-1.41,0.45
			C188.65,34.56,188.16,34.6,187.7,34.6z M187.16,26.9c-0.31,0-0.58,0.05-0.81,0.16c-0.23,0.1-0.41,0.24-0.56,0.4
			c-0.14,0.16-0.25,0.35-0.32,0.55c-0.07,0.2-0.11,0.41-0.13,0.62l3.35-0.55c-0.04-0.26-0.18-0.52-0.43-0.78
			C188,27.03,187.64,26.9,187.16,26.9z"/>
		<path class="st0" d="M202.1,34.6c-0.22,0-0.48-0.01-0.76-0.02c-0.29-0.01-0.58-0.04-0.89-0.08c-0.31-0.04-0.61-0.09-0.92-0.15
			c-0.31-0.06-0.59-0.14-0.85-0.24c-0.72-0.27-1.08-0.75-1.08-1.43v-9.15c0-0.27,0.07-0.49,0.23-0.64c0.15-0.15,0.36-0.27,0.62-0.36
			c0.56-0.18,1.16-0.3,1.78-0.36c0.63-0.06,1.19-0.09,1.68-0.09c1.02,0,1.94,0.12,2.77,0.37c0.83,0.25,1.54,0.63,2.14,1.15
			c0.59,0.52,1.05,1.17,1.38,1.95c0.33,0.78,0.49,1.71,0.49,2.78c0,1.04-0.16,1.96-0.47,2.73s-0.76,1.43-1.34,1.96
			c-0.58,0.53-1.28,0.92-2.09,1.19C203.98,34.47,203.08,34.6,202.1,34.6z M201.01,31.74c0.14,0.03,0.32,0.05,0.53,0.07
			c0.21,0.02,0.4,0.03,0.59,0.03c0.44,0,0.85-0.07,1.22-0.2c0.37-0.13,0.69-0.33,0.96-0.61c0.27-0.27,0.48-0.63,0.63-1.07
			c0.15-0.44,0.23-0.96,0.23-1.58c0-1.18-0.27-2.06-0.82-2.65c-0.55-0.59-1.28-0.89-2.19-0.89c-0.18,0-0.37,0.01-0.56,0.02
			c-0.19,0.01-0.38,0.03-0.58,0.06V31.74z"/>
		<path class="st0" d="M215.42,34.6c-0.77,0-1.49-0.11-2.14-0.32c-0.66-0.22-1.23-0.54-1.72-0.97c-0.49-0.43-0.88-0.97-1.16-1.63
			c-0.28-0.65-0.42-1.42-0.42-2.29c0-0.86,0.14-1.6,0.42-2.22c0.28-0.62,0.65-1.13,1.11-1.53c0.46-0.4,0.98-0.69,1.57-0.88
			c0.59-0.19,1.19-0.28,1.8-0.28c0.69,0,1.32,0.1,1.89,0.31c0.57,0.21,1.06,0.5,1.47,0.86c0.41,0.37,0.73,0.8,0.96,1.31
			c0.23,0.51,0.34,1.06,0.34,1.67c0,0.44-0.12,0.78-0.37,1.02c-0.25,0.24-0.59,0.39-1.04,0.45l-4.84,0.72
			c0.14,0.43,0.44,0.75,0.88,0.97c0.44,0.22,0.95,0.32,1.53,0.32c0.54,0,1.04-0.07,1.52-0.21c0.48-0.14,0.86-0.3,1.17-0.48
			c0.21,0.13,0.38,0.31,0.53,0.55c0.14,0.23,0.22,0.48,0.22,0.74c0,0.59-0.27,1.03-0.82,1.31c-0.42,0.22-0.89,0.37-1.41,0.45
			C216.37,34.56,215.88,34.6,215.42,34.6z M214.88,26.9c-0.31,0-0.58,0.05-0.81,0.16c-0.23,0.1-0.41,0.24-0.56,0.4
			c-0.14,0.16-0.25,0.35-0.32,0.55c-0.07,0.2-0.11,0.41-0.13,0.62l3.35-0.55c-0.04-0.26-0.18-0.52-0.43-0.78
			C215.72,27.03,215.36,26.9,214.88,26.9z"/>
		<path class="st0" d="M229.18,31.45c0,0.99-0.37,1.77-1.12,2.33s-1.84,0.84-3.29,0.84c-0.55,0-1.06-0.04-1.53-0.12
			c-0.47-0.08-0.87-0.2-1.2-0.36c-0.33-0.16-0.59-0.37-0.78-0.62c-0.19-0.25-0.28-0.54-0.28-0.88c0-0.31,0.07-0.58,0.2-0.79
			c0.13-0.22,0.29-0.39,0.47-0.54c0.38,0.21,0.81,0.4,1.3,0.56c0.49,0.16,1.05,0.24,1.69,0.24c0.4,0,0.71-0.06,0.93-0.18
			c0.22-0.12,0.32-0.27,0.32-0.47c0-0.18-0.08-0.33-0.23-0.43c-0.16-0.1-0.42-0.19-0.78-0.25l-0.59-0.12
			c-1.14-0.22-1.98-0.57-2.54-1.05c-0.56-0.48-0.83-1.16-0.83-2.05c0-0.48,0.1-0.92,0.31-1.31c0.21-0.39,0.5-0.72,0.88-0.98
			c0.38-0.26,0.83-0.46,1.36-0.61c0.53-0.14,1.11-0.22,1.75-0.22c0.48,0,0.94,0.04,1.36,0.11c0.42,0.07,0.79,0.18,1.11,0.32
			c0.31,0.14,0.56,0.33,0.74,0.56c0.18,0.23,0.27,0.5,0.27,0.81c0,0.3-0.06,0.56-0.17,0.77c-0.11,0.22-0.25,0.39-0.42,0.54
			c-0.1-0.07-0.26-0.13-0.47-0.21c-0.21-0.07-0.44-0.14-0.69-0.2c-0.25-0.06-0.5-0.11-0.75-0.15c-0.25-0.04-0.49-0.06-0.7-0.06
			c-0.43,0-0.76,0.05-1,0.15c-0.24,0.1-0.35,0.25-0.35,0.46c0,0.14,0.06,0.26,0.2,0.35c0.13,0.09,0.38,0.18,0.74,0.25l0.61,0.14
			c1.25,0.29,2.15,0.68,2.67,1.19C228.91,30,229.18,30.65,229.18,31.45z"/>
		<path class="st0" d="M234.89,24.47c0.71,0,1.35,0.07,1.93,0.22c0.58,0.14,1.08,0.36,1.49,0.66c0.41,0.29,0.73,0.67,0.95,1.12
			c0.22,0.45,0.33,0.98,0.33,1.6v4.39c0,0.34-0.1,0.62-0.28,0.83c-0.19,0.22-0.41,0.4-0.68,0.56c-0.85,0.51-2.04,0.76-3.58,0.76
			c-0.69,0-1.32-0.07-1.87-0.2c-0.56-0.13-1.03-0.33-1.43-0.59c-0.4-0.26-0.71-0.59-0.92-1c-0.22-0.4-0.32-0.87-0.32-1.41
			c0-0.9,0.27-1.59,0.8-2.08c0.54-0.48,1.36-0.78,2.49-0.9l2.57-0.27v-0.14c0-0.38-0.17-0.65-0.5-0.81
			c-0.33-0.16-0.81-0.24-1.44-0.24c-0.5,0-0.98,0.05-1.45,0.16c-0.47,0.1-0.89,0.23-1.27,0.39c-0.17-0.12-0.31-0.3-0.43-0.54
			c-0.12-0.24-0.18-0.49-0.18-0.75c0-0.34,0.08-0.61,0.24-0.81c0.16-0.2,0.41-0.38,0.75-0.52c0.38-0.14,0.83-0.25,1.34-0.31
			C233.95,24.5,234.44,24.47,234.89,24.47z M235.05,32.17c0.22,0,0.47-0.02,0.73-0.07c0.27-0.05,0.47-0.11,0.6-0.19v-1.57
			l-1.41,0.12c-0.37,0.03-0.67,0.1-0.9,0.24c-0.24,0.13-0.35,0.33-0.35,0.59c0,0.26,0.1,0.47,0.3,0.64
			C234.23,32.09,234.57,32.17,235.05,32.17z"/>
		<path class="st0" d="M244.96,34.27c-0.13,0.04-0.34,0.08-0.62,0.12c-0.28,0.04-0.57,0.06-0.87,0.06c-0.29,0-0.55-0.02-0.77-0.06
			c-0.23-0.04-0.42-0.12-0.58-0.24c-0.16-0.12-0.28-0.28-0.36-0.48c-0.09-0.2-0.13-0.47-0.13-0.79V27c0-0.3,0.06-0.56,0.17-0.77
			c0.11-0.22,0.27-0.41,0.48-0.58c0.21-0.17,0.47-0.32,0.77-0.46c0.31-0.14,0.64-0.26,0.99-0.36c0.35-0.1,0.72-0.19,1.1-0.24
			c0.38-0.06,0.76-0.09,1.14-0.09c0.63,0,1.12,0.12,1.49,0.36c0.37,0.24,0.55,0.64,0.55,1.19c0,0.18-0.03,0.36-0.08,0.54
			c-0.05,0.18-0.12,0.34-0.2,0.48c-0.27,0-0.56,0.01-0.84,0.04c-0.29,0.03-0.57,0.07-0.84,0.12c-0.27,0.05-0.53,0.11-0.77,0.17
			c-0.24,0.06-0.45,0.13-0.62,0.21V34.27z"/>
		<path class="st0" d="M252.82,34.27c-0.13,0.04-0.34,0.08-0.62,0.12c-0.28,0.04-0.57,0.06-0.87,0.06c-0.29,0-0.55-0.02-0.77-0.06
			c-0.23-0.04-0.42-0.12-0.58-0.24c-0.16-0.12-0.28-0.28-0.36-0.48c-0.09-0.2-0.13-0.47-0.13-0.79V27c0-0.3,0.06-0.56,0.17-0.77
			c0.11-0.22,0.27-0.41,0.48-0.58c0.21-0.17,0.47-0.32,0.77-0.46s0.64-0.26,0.99-0.36c0.35-0.1,0.72-0.19,1.1-0.24
			c0.38-0.06,0.76-0.09,1.14-0.09c0.63,0,1.12,0.12,1.49,0.36c0.37,0.24,0.55,0.64,0.55,1.19c0,0.18-0.03,0.36-0.08,0.54
			c-0.05,0.18-0.12,0.34-0.2,0.48c-0.27,0-0.56,0.01-0.84,0.04c-0.29,0.03-0.57,0.07-0.84,0.12c-0.27,0.05-0.53,0.11-0.77,0.17
			c-0.24,0.06-0.45,0.13-0.62,0.21V34.27z"/>
		<path class="st0" d="M267.02,29.53c0,0.81-0.12,1.53-0.37,2.16c-0.25,0.63-0.6,1.17-1.05,1.6c-0.45,0.43-0.99,0.76-1.62,0.98
			c-0.63,0.22-1.33,0.33-2.1,0.33s-1.47-0.12-2.1-0.35c-0.63-0.24-1.17-0.57-1.62-1.01c-0.45-0.44-0.8-0.97-1.05-1.6
			c-0.25-0.63-0.37-1.33-0.37-2.12c0-0.77,0.12-1.47,0.37-2.1c0.25-0.63,0.6-1.16,1.05-1.6c0.45-0.44,0.99-0.77,1.62-1.01
			c0.63-0.23,1.33-0.35,2.1-0.35s1.47,0.12,2.1,0.36c0.63,0.24,1.17,0.58,1.62,1.02c0.45,0.44,0.8,0.97,1.05,1.6
			C266.9,28.08,267.02,28.77,267.02,29.53z M260.17,29.53c0,0.8,0.15,1.41,0.46,1.83c0.31,0.42,0.73,0.64,1.28,0.64
			c0.55,0,0.97-0.22,1.26-0.65c0.29-0.43,0.44-1.04,0.44-1.82c0-0.78-0.15-1.39-0.45-1.81c-0.3-0.42-0.72-0.64-1.27-0.64
			c-0.55,0-0.97,0.21-1.27,0.64C260.32,28.14,260.17,28.74,260.17,29.53z"/>
		<path class="st0" d="M272.04,34.27c-0.14,0.03-0.36,0.06-0.64,0.11c-0.28,0.05-0.56,0.07-0.85,0.07s-0.55-0.02-0.77-0.06
			c-0.23-0.04-0.42-0.12-0.58-0.24c-0.16-0.12-0.28-0.28-0.36-0.48c-0.09-0.2-0.13-0.47-0.13-0.79V21.51
			c0.14-0.03,0.36-0.06,0.64-0.11c0.28-0.05,0.56-0.07,0.85-0.07c0.29,0,0.55,0.02,0.77,0.06c0.23,0.04,0.42,0.12,0.58,0.24
			c0.16,0.12,0.28,0.28,0.36,0.48c0.08,0.2,0.13,0.47,0.13,0.79V34.27z"/>
		<path class="st0" d="M277.52,34.27c-0.14,0.03-0.36,0.06-0.64,0.11c-0.28,0.05-0.56,0.07-0.85,0.07s-0.55-0.02-0.77-0.06
			c-0.23-0.04-0.42-0.12-0.58-0.24c-0.16-0.12-0.28-0.28-0.36-0.48c-0.09-0.2-0.13-0.47-0.13-0.79V21.51
			c0.14-0.03,0.36-0.06,0.64-0.11c0.28-0.05,0.56-0.07,0.85-0.07c0.29,0,0.55,0.02,0.77,0.06c0.23,0.04,0.42,0.12,0.58,0.24
			c0.16,0.12,0.28,0.28,0.36,0.48c0.08,0.2,0.13,0.47,0.13,0.79V34.27z"/>
		<path class="st0" d="M289.47,29.53c0,0.81-0.12,1.53-0.37,2.16c-0.25,0.63-0.6,1.17-1.05,1.6c-0.45,0.43-0.99,0.76-1.62,0.98
			c-0.63,0.22-1.33,0.33-2.1,0.33c-0.77,0-1.47-0.12-2.1-0.35c-0.63-0.24-1.17-0.57-1.62-1.01c-0.45-0.44-0.8-0.97-1.05-1.6
			c-0.25-0.63-0.37-1.33-0.37-2.12c0-0.77,0.12-1.47,0.37-2.1c0.25-0.63,0.6-1.16,1.05-1.6c0.45-0.44,0.99-0.77,1.62-1.01
			c0.63-0.23,1.33-0.35,2.1-0.35c0.77,0,1.47,0.12,2.1,0.36c0.63,0.24,1.17,0.58,1.62,1.02c0.45,0.44,0.8,0.97,1.05,1.6
			C289.35,28.08,289.47,28.77,289.47,29.53z M282.61,29.53c0,0.8,0.15,1.41,0.46,1.83c0.31,0.42,0.73,0.64,1.28,0.64
			c0.55,0,0.97-0.22,1.26-0.65c0.29-0.43,0.44-1.04,0.44-1.82c0-0.78-0.15-1.39-0.45-1.81c-0.3-0.42-0.72-0.64-1.27-0.64
			c-0.55,0-0.97,0.21-1.27,0.64C282.76,28.14,282.61,28.74,282.61,29.53z"/>
		<path class="st0" d="M173.97,42.36c0.22-0.13,0.56-0.25,1.01-0.37c0.45-0.12,0.9-0.18,1.36-0.18c0.65,0,1.23,0.09,1.73,0.28
			c0.5,0.19,0.83,0.49,0.97,0.89c0.24,0.68,0.49,1.47,0.76,2.37c0.27,0.9,0.55,1.83,0.82,2.79c0.27,0.96,0.54,1.91,0.8,2.84
			c0.26,0.93,0.49,1.76,0.69,2.48c-0.16,0.18-0.39,0.33-0.71,0.44c-0.31,0.11-0.69,0.17-1.12,0.17c-0.31,0-0.58-0.03-0.79-0.08
			c-0.22-0.05-0.39-0.13-0.53-0.24c-0.14-0.1-0.25-0.24-0.33-0.41c-0.09-0.17-0.16-0.37-0.23-0.59l-0.35-1.35h-3.55
			c-0.1,0.39-0.21,0.8-0.31,1.21c-0.1,0.42-0.21,0.82-0.31,1.21c-0.18,0.07-0.38,0.12-0.58,0.17c-0.2,0.05-0.45,0.07-0.73,0.07
			c-0.67,0-1.16-0.11-1.48-0.34c-0.32-0.23-0.48-0.54-0.48-0.95c0-0.18,0.03-0.37,0.08-0.55c0.05-0.18,0.11-0.4,0.18-0.65
			c0.09-0.35,0.22-0.79,0.38-1.31c0.16-0.52,0.34-1.09,0.54-1.69c0.2-0.61,0.4-1.23,0.63-1.87c0.22-0.64,0.43-1.24,0.63-1.81
			c0.2-0.57,0.38-1.07,0.54-1.52C173.75,42.93,173.88,42.59,173.97,42.36z M176.32,44.88c-0.18,0.55-0.39,1.16-0.62,1.83
			c-0.23,0.67-0.43,1.35-0.62,2.05h2.43c-0.18-0.71-0.37-1.39-0.56-2.07c-0.19-0.67-0.36-1.28-0.52-1.81H176.32z"/>
		<path class="st0" d="M188.02,44.06c0.74,0,1.42,0.09,2.03,0.28c0.61,0.19,1.12,0.43,1.54,0.73c0.26,0.18,0.47,0.39,0.62,0.61
			c0.15,0.22,0.23,0.51,0.23,0.86v6.86c0,0.69-0.13,1.29-0.39,1.79c-0.26,0.5-0.62,0.92-1.07,1.25c-0.45,0.33-0.98,0.58-1.59,0.73
			c-0.61,0.16-1.26,0.23-1.95,0.23c-1.19,0-2.12-0.16-2.8-0.48c-0.68-0.32-1.02-0.84-1.02-1.56c0-0.3,0.06-0.57,0.19-0.79
			c0.12-0.23,0.26-0.4,0.42-0.52c0.38,0.21,0.81,0.38,1.28,0.53c0.48,0.14,0.97,0.22,1.48,0.22c0.71,0,1.27-0.12,1.68-0.35
			c0.42-0.24,0.63-0.61,0.63-1.14v-0.31c-0.54,0.23-1.19,0.35-1.96,0.35c-0.59,0-1.15-0.09-1.67-0.26
			c-0.53-0.18-0.99-0.45-1.39-0.82c-0.4-0.37-0.72-0.85-0.96-1.44c-0.24-0.59-0.36-1.29-0.36-2.1c0-0.8,0.13-1.49,0.38-2.08
			c0.25-0.59,0.61-1.07,1.06-1.46c0.45-0.38,0.99-0.67,1.61-0.86C186.61,44.16,187.29,44.06,188.02,44.06z M189.23,46.9
			c-0.09-0.05-0.23-0.1-0.4-0.16c-0.18-0.05-0.4-0.08-0.66-0.08c-0.64,0-1.12,0.18-1.44,0.54c-0.32,0.36-0.48,0.87-0.48,1.54
			c0,0.76,0.16,1.3,0.48,1.64c0.32,0.33,0.73,0.5,1.22,0.5c0.54,0,0.96-0.12,1.27-0.37V46.9z"/>
		<path class="st0" d="M197.81,53.86c-0.13,0.04-0.34,0.08-0.62,0.12c-0.28,0.04-0.57,0.06-0.87,0.06c-0.29,0-0.55-0.02-0.77-0.06
			c-0.23-0.04-0.42-0.12-0.58-0.24c-0.16-0.12-0.28-0.28-0.36-0.48c-0.09-0.2-0.13-0.47-0.13-0.79v-5.88c0-0.3,0.06-0.56,0.17-0.77
			c0.11-0.22,0.27-0.41,0.48-0.58c0.21-0.17,0.47-0.32,0.77-0.46c0.31-0.14,0.64-0.26,0.99-0.36c0.35-0.1,0.72-0.19,1.1-0.24
			c0.38-0.06,0.76-0.09,1.14-0.09c0.63,0,1.12,0.12,1.49,0.36c0.37,0.24,0.55,0.64,0.55,1.19c0,0.18-0.03,0.36-0.08,0.54
			c-0.05,0.18-0.12,0.34-0.2,0.48c-0.27,0-0.56,0.01-0.84,0.04c-0.29,0.03-0.57,0.07-0.84,0.12c-0.27,0.05-0.53,0.11-0.77,0.17
			c-0.24,0.06-0.45,0.13-0.62,0.21V53.86z"/>
		<path class="st0" d="M212.01,49.12c0,0.81-0.12,1.53-0.37,2.16c-0.25,0.63-0.6,1.17-1.05,1.6c-0.45,0.43-0.99,0.76-1.62,0.98
			c-0.63,0.22-1.33,0.33-2.1,0.33s-1.47-0.12-2.1-0.35c-0.63-0.24-1.17-0.57-1.62-1.01c-0.45-0.44-0.8-0.97-1.05-1.6
			c-0.25-0.63-0.37-1.33-0.37-2.12c0-0.77,0.12-1.47,0.37-2.1c0.25-0.63,0.6-1.16,1.05-1.6c0.45-0.44,0.99-0.77,1.62-1.01
			c0.63-0.23,1.33-0.35,2.1-0.35s1.47,0.12,2.1,0.36c0.63,0.24,1.17,0.58,1.62,1.02c0.45,0.44,0.8,0.97,1.05,1.6
			C211.89,47.67,212.01,48.36,212.01,49.12z M205.16,49.12c0,0.8,0.15,1.41,0.46,1.83c0.31,0.42,0.73,0.64,1.28,0.64
			c0.55,0,0.97-0.22,1.26-0.65c0.29-0.43,0.44-1.04,0.44-1.82c0-0.78-0.15-1.39-0.45-1.81c-0.3-0.42-0.72-0.64-1.27-0.64
			c-0.55,0-0.97,0.21-1.27,0.64C205.31,47.73,205.16,48.33,205.16,49.12z"/>
		<path class="st0" d="M217.6,44.06c0.71,0,1.35,0.07,1.93,0.22c0.58,0.14,1.08,0.36,1.49,0.66c0.41,0.29,0.73,0.67,0.95,1.12
			c0.22,0.45,0.33,0.98,0.33,1.6v4.39c0,0.34-0.1,0.62-0.28,0.83c-0.19,0.22-0.41,0.4-0.68,0.56c-0.85,0.51-2.04,0.76-3.58,0.76
			c-0.69,0-1.32-0.07-1.87-0.2c-0.56-0.13-1.03-0.33-1.43-0.59c-0.4-0.26-0.71-0.59-0.92-1c-0.22-0.4-0.32-0.87-0.32-1.41
			c0-0.9,0.27-1.59,0.8-2.08c0.54-0.48,1.36-0.78,2.49-0.9l2.57-0.27v-0.14c0-0.38-0.17-0.65-0.5-0.81
			c-0.33-0.16-0.81-0.24-1.44-0.24c-0.5,0-0.98,0.05-1.45,0.16c-0.47,0.1-0.89,0.23-1.27,0.39c-0.17-0.12-0.31-0.3-0.43-0.54
			c-0.12-0.24-0.18-0.49-0.18-0.75c0-0.34,0.08-0.61,0.24-0.81c0.16-0.2,0.41-0.38,0.75-0.52c0.38-0.14,0.83-0.25,1.34-0.31
			C216.65,44.09,217.14,44.06,217.6,44.06z M217.75,51.76c0.22,0,0.47-0.02,0.73-0.07c0.27-0.05,0.47-0.11,0.6-0.19v-1.57
			l-1.41,0.12c-0.37,0.03-0.67,0.1-0.9,0.24c-0.24,0.13-0.35,0.33-0.35,0.59c0,0.26,0.1,0.47,0.3,0.64
			C216.93,51.68,217.27,51.76,217.75,51.76z"/>
		<path class="st0" d="M227.73,53.86c-0.14,0.03-0.36,0.06-0.64,0.11c-0.28,0.05-0.56,0.07-0.85,0.07c-0.29,0-0.55-0.02-0.77-0.06
			c-0.23-0.04-0.42-0.12-0.58-0.24c-0.16-0.12-0.28-0.28-0.36-0.48c-0.09-0.2-0.13-0.47-0.13-0.79V41.1
			c0.14-0.03,0.36-0.06,0.64-0.11c0.28-0.05,0.56-0.07,0.85-0.07s0.55,0.02,0.77,0.06c0.23,0.04,0.42,0.12,0.58,0.24
			c0.16,0.12,0.28,0.28,0.36,0.48c0.08,0.2,0.13,0.47,0.13,0.79V53.86z"/>
		<path class="st0" d="M229.74,41.71c0-0.5,0.17-0.91,0.5-1.25c0.33-0.34,0.77-0.51,1.32-0.51c0.55,0,0.99,0.17,1.32,0.51
			c0.33,0.34,0.5,0.76,0.5,1.25c0,0.5-0.17,0.91-0.5,1.25c-0.33,0.34-0.77,0.51-1.32,0.51c-0.55,0-0.99-0.17-1.32-0.51
			C229.91,42.62,229.74,42.21,229.74,41.71z M233.23,53.86c-0.14,0.03-0.36,0.06-0.64,0.11c-0.28,0.05-0.56,0.07-0.85,0.07
			c-0.29,0-0.55-0.02-0.77-0.06c-0.23-0.04-0.42-0.12-0.58-0.24c-0.16-0.12-0.28-0.28-0.36-0.48c-0.09-0.2-0.13-0.47-0.13-0.79
			v-7.97c0.14-0.03,0.36-0.06,0.64-0.11c0.28-0.05,0.56-0.07,0.85-0.07c0.29,0,0.55,0.02,0.77,0.06c0.23,0.04,0.42,0.12,0.58,0.24
			c0.16,0.12,0.28,0.28,0.36,0.48c0.08,0.2,0.13,0.47,0.13,0.79V53.86z"/>
		<path class="st0" d="M239.91,44.06c0.54,0,1.06,0.08,1.58,0.23c0.52,0.15,0.96,0.38,1.34,0.68c0.39-0.26,0.83-0.48,1.32-0.65
			c0.49-0.17,1.08-0.25,1.77-0.25c0.5,0,0.98,0.07,1.46,0.2c0.48,0.13,0.9,0.34,1.27,0.62c0.37,0.28,0.67,0.65,0.89,1.12
			c0.22,0.46,0.33,1.03,0.33,1.69v6.17c-0.13,0.04-0.34,0.08-0.62,0.12c-0.28,0.04-0.57,0.06-0.87,0.06c-0.29,0-0.55-0.02-0.77-0.06
			c-0.23-0.04-0.42-0.12-0.58-0.24c-0.16-0.12-0.28-0.28-0.36-0.48c-0.09-0.2-0.13-0.47-0.13-0.79v-4.68c0-0.39-0.11-0.68-0.33-0.85
			c-0.22-0.18-0.52-0.26-0.9-0.26c-0.18,0-0.38,0.04-0.59,0.13c-0.21,0.08-0.37,0.17-0.47,0.26c0.01,0.05,0.02,0.1,0.02,0.15
			c0,0.05,0,0.09,0,0.13v6.52c-0.14,0.04-0.36,0.08-0.64,0.12c-0.28,0.04-0.56,0.06-0.85,0.06c-0.29,0-0.55-0.02-0.77-0.06
			c-0.23-0.04-0.42-0.12-0.58-0.24c-0.16-0.12-0.28-0.28-0.36-0.48c-0.09-0.2-0.13-0.47-0.13-0.79v-4.68c0-0.39-0.12-0.68-0.36-0.85
			c-0.24-0.18-0.53-0.26-0.87-0.26c-0.23,0-0.44,0.04-0.61,0.11c-0.17,0.07-0.31,0.14-0.43,0.21v6.88
			c-0.13,0.04-0.34,0.08-0.62,0.12c-0.28,0.04-0.57,0.06-0.87,0.06c-0.29,0-0.55-0.02-0.77-0.06c-0.23-0.04-0.42-0.12-0.58-0.24
			c-0.16-0.12-0.28-0.28-0.36-0.48c-0.09-0.2-0.13-0.47-0.13-0.79v-5.92c0-0.35,0.07-0.63,0.23-0.84c0.15-0.21,0.36-0.4,0.62-0.59
			c0.44-0.31,1-0.57,1.66-0.76C238.5,44.16,239.19,44.06,239.91,44.06z"/>
		<path class="st0" d="M256.95,54.19c-0.77,0-1.49-0.11-2.14-0.32c-0.66-0.22-1.23-0.54-1.72-0.97c-0.49-0.43-0.88-0.97-1.16-1.63
			c-0.28-0.65-0.42-1.42-0.42-2.29c0-0.86,0.14-1.6,0.42-2.22c0.28-0.62,0.65-1.13,1.11-1.53c0.46-0.4,0.98-0.69,1.57-0.88
			c0.59-0.19,1.19-0.28,1.8-0.28c0.69,0,1.32,0.1,1.89,0.31c0.57,0.21,1.06,0.5,1.47,0.86c0.41,0.37,0.73,0.8,0.96,1.31
			c0.23,0.51,0.34,1.06,0.34,1.67c0,0.44-0.12,0.78-0.37,1.02c-0.25,0.24-0.59,0.39-1.04,0.45l-4.84,0.72
			c0.14,0.43,0.44,0.75,0.88,0.97c0.44,0.22,0.95,0.32,1.53,0.32c0.54,0,1.04-0.07,1.52-0.21c0.48-0.14,0.86-0.3,1.17-0.48
			c0.21,0.13,0.38,0.31,0.53,0.55c0.14,0.23,0.22,0.48,0.22,0.74c0,0.59-0.27,1.03-0.82,1.31c-0.42,0.22-0.89,0.37-1.41,0.45
			C257.9,54.15,257.41,54.19,256.95,54.19z M256.4,46.49c-0.31,0-0.58,0.05-0.81,0.16c-0.23,0.1-0.41,0.24-0.56,0.4
			c-0.14,0.16-0.25,0.35-0.32,0.55c-0.07,0.2-0.11,0.41-0.13,0.62l3.35-0.55c-0.04-0.26-0.18-0.52-0.43-0.78
			C257.25,46.62,256.89,46.49,256.4,46.49z"/>
		<path class="st0" d="M268.71,47.84c0-0.4-0.11-0.7-0.34-0.89c-0.23-0.19-0.54-0.28-0.93-0.28c-0.26,0-0.52,0.03-0.77,0.1
			c-0.25,0.07-0.47,0.16-0.66,0.29v6.8c-0.13,0.04-0.34,0.08-0.62,0.12c-0.28,0.04-0.57,0.06-0.87,0.06c-0.29,0-0.55-0.02-0.77-0.06
			c-0.23-0.04-0.42-0.12-0.58-0.24c-0.16-0.12-0.28-0.28-0.36-0.48c-0.09-0.2-0.13-0.47-0.13-0.79v-5.88c0-0.35,0.07-0.64,0.23-0.86
			c0.15-0.22,0.36-0.42,0.62-0.61c0.44-0.31,1-0.57,1.68-0.76c0.67-0.2,1.42-0.29,2.24-0.29c1.48,0,2.61,0.32,3.41,0.97
			c0.8,0.65,1.2,1.54,1.2,2.69v6.13c-0.13,0.04-0.34,0.08-0.62,0.12c-0.28,0.04-0.57,0.06-0.87,0.06c-0.29,0-0.55-0.02-0.77-0.06
			c-0.23-0.04-0.42-0.12-0.58-0.24c-0.16-0.12-0.28-0.28-0.36-0.48c-0.09-0.2-0.13-0.47-0.13-0.79V47.84z"/>
		<path class="st0" d="M277.42,50.6c0,0.34,0.11,0.58,0.32,0.72c0.22,0.14,0.52,0.22,0.91,0.22c0.2,0,0.4-0.02,0.61-0.05
			c0.21-0.03,0.39-0.08,0.55-0.13c0.12,0.14,0.22,0.3,0.3,0.48c0.08,0.18,0.13,0.39,0.13,0.64c0,0.5-0.19,0.9-0.56,1.21
			c-0.37,0.31-1.03,0.47-1.97,0.47c-1.15,0-2.03-0.26-2.65-0.78c-0.62-0.52-0.93-1.37-0.93-2.55v-8.38
			c0.14-0.04,0.35-0.08,0.62-0.13c0.27-0.05,0.55-0.07,0.85-0.07c0.57,0,1.02,0.1,1.34,0.3c0.32,0.2,0.48,0.63,0.48,1.28v1.25h2.57
			c0.08,0.14,0.15,0.32,0.23,0.54c0.07,0.22,0.11,0.45,0.11,0.71c0,0.46-0.1,0.79-0.3,0.99c-0.2,0.2-0.47,0.3-0.81,0.3h-1.78V50.6z"
			/>
		<path class="st0" d="M285.85,44.06c0.71,0,1.35,0.07,1.93,0.22c0.58,0.14,1.08,0.36,1.49,0.66c0.41,0.29,0.73,0.67,0.95,1.12
			c0.22,0.45,0.33,0.98,0.33,1.6v4.39c0,0.34-0.1,0.62-0.28,0.83c-0.19,0.22-0.41,0.4-0.68,0.56c-0.85,0.51-2.04,0.76-3.58,0.76
			c-0.69,0-1.32-0.07-1.87-0.2c-0.56-0.13-1.03-0.33-1.43-0.59c-0.4-0.26-0.71-0.59-0.92-1c-0.22-0.4-0.32-0.87-0.32-1.41
			c0-0.9,0.27-1.59,0.8-2.08c0.54-0.48,1.36-0.78,2.49-0.9l2.57-0.27v-0.14c0-0.38-0.17-0.65-0.5-0.81
			c-0.33-0.16-0.81-0.24-1.44-0.24c-0.5,0-0.98,0.05-1.45,0.16c-0.47,0.1-0.89,0.23-1.27,0.39c-0.17-0.12-0.31-0.3-0.43-0.54
			c-0.12-0.24-0.18-0.49-0.18-0.75c0-0.34,0.08-0.61,0.24-0.81c0.16-0.2,0.41-0.38,0.75-0.52c0.38-0.14,0.83-0.25,1.34-0.31
			C284.9,44.09,285.39,44.06,285.85,44.06z M286,51.76c0.22,0,0.47-0.02,0.73-0.07c0.27-0.05,0.47-0.11,0.6-0.19v-1.57l-1.41,0.12
			c-0.37,0.03-0.67,0.1-0.9,0.24c-0.24,0.13-0.35,0.33-0.35,0.59c0,0.26,0.1,0.47,0.3,0.64C285.18,51.68,285.52,51.76,286,51.76z"/>
		<path class="st0" d="M295.92,53.86c-0.13,0.04-0.34,0.08-0.62,0.12c-0.28,0.04-0.57,0.06-0.87,0.06c-0.29,0-0.55-0.02-0.77-0.06
			c-0.23-0.04-0.42-0.12-0.58-0.24c-0.16-0.12-0.28-0.28-0.36-0.48c-0.09-0.2-0.13-0.47-0.13-0.79v-5.88c0-0.3,0.06-0.56,0.17-0.77
			c0.11-0.22,0.27-0.41,0.48-0.58c0.21-0.17,0.47-0.32,0.77-0.46s0.64-0.26,0.99-0.36c0.35-0.1,0.72-0.19,1.1-0.24
			c0.38-0.06,0.76-0.09,1.14-0.09c0.63,0,1.12,0.12,1.49,0.36c0.37,0.24,0.55,0.64,0.55,1.19c0,0.18-0.03,0.36-0.08,0.54
			c-0.05,0.18-0.12,0.34-0.2,0.48c-0.27,0-0.56,0.01-0.84,0.04c-0.29,0.03-0.57,0.07-0.84,0.12c-0.27,0.05-0.53,0.11-0.77,0.17
			c-0.24,0.06-0.45,0.13-0.62,0.21V53.86z"/>
		<path class="st0" d="M300.56,41.71c0-0.5,0.17-0.91,0.5-1.25c0.33-0.34,0.77-0.51,1.32-0.51c0.55,0,0.99,0.17,1.32,0.51
			c0.33,0.34,0.5,0.76,0.5,1.25c0,0.5-0.17,0.91-0.5,1.25c-0.33,0.34-0.77,0.51-1.32,0.51c-0.55,0-0.99-0.17-1.32-0.51
			C300.72,42.62,300.56,42.21,300.56,41.71z M304.05,53.86c-0.14,0.03-0.36,0.06-0.64,0.11c-0.28,0.05-0.56,0.07-0.85,0.07
			c-0.29,0-0.55-0.02-0.77-0.06c-0.23-0.04-0.42-0.12-0.58-0.24c-0.16-0.12-0.28-0.28-0.36-0.48c-0.09-0.2-0.13-0.47-0.13-0.79
			v-7.97c0.14-0.03,0.36-0.06,0.64-0.11c0.28-0.05,0.56-0.07,0.85-0.07c0.29,0,0.55,0.02,0.77,0.06c0.23,0.04,0.42,0.12,0.58,0.24
			c0.16,0.12,0.28,0.28,0.36,0.48c0.08,0.2,0.13,0.47,0.13,0.79V53.86z"/>
		<path class="st0" d="M316.01,49.12c0,0.81-0.12,1.53-0.37,2.16c-0.25,0.63-0.6,1.17-1.05,1.6c-0.45,0.43-0.99,0.76-1.62,0.98
			c-0.63,0.22-1.33,0.33-2.1,0.33c-0.77,0-1.47-0.12-2.1-0.35c-0.63-0.24-1.17-0.57-1.62-1.01c-0.45-0.44-0.8-0.97-1.05-1.6
			c-0.25-0.63-0.37-1.33-0.37-2.12c0-0.77,0.12-1.47,0.37-2.1c0.25-0.63,0.6-1.16,1.05-1.6c0.45-0.44,0.99-0.77,1.62-1.01
			c0.63-0.23,1.33-0.35,2.1-0.35c0.77,0,1.47,0.12,2.1,0.36c0.63,0.24,1.17,0.58,1.62,1.02c0.45,0.44,0.8,0.97,1.05,1.6
			C315.89,47.67,316.01,48.36,316.01,49.12z M309.16,49.12c0,0.8,0.15,1.41,0.46,1.83c0.31,0.42,0.73,0.64,1.28,0.64
			c0.55,0,0.97-0.22,1.26-0.65c0.29-0.43,0.44-1.04,0.44-1.82c0-0.78-0.15-1.39-0.45-1.81c-0.3-0.42-0.72-0.64-1.27-0.64
			c-0.55,0-0.97,0.21-1.27,0.64C309.31,47.73,309.16,48.33,309.16,49.12z"/>
		<path class="st0" d="M172.68,71.04c-0.14-0.33-0.3-0.69-0.46-1.1c-0.16-0.4-0.33-0.87-0.51-1.39c-0.18-0.52-0.36-1.12-0.55-1.79
			c-0.19-0.67-0.39-1.45-0.6-2.32c0.18-0.18,0.43-0.34,0.73-0.48c0.31-0.14,0.64-0.21,1.01-0.21c0.46,0,0.84,0.09,1.14,0.28
			c0.3,0.19,0.52,0.55,0.67,1.07l1.55,5.39h0.08c0.16-0.44,0.31-0.93,0.46-1.45c0.15-0.52,0.3-1.06,0.44-1.62
			c0.14-0.55,0.28-1.11,0.4-1.66c0.12-0.56,0.23-1.1,0.32-1.64c0.47-0.25,0.99-0.37,1.55-0.37c0.46,0,0.84,0.1,1.14,0.29
			c0.3,0.2,0.45,0.54,0.45,1.02c0,0.35-0.05,0.76-0.14,1.22c-0.09,0.46-0.21,0.96-0.36,1.48c-0.15,0.52-0.33,1.06-0.53,1.62
			c-0.2,0.56-0.41,1.1-0.64,1.64c-0.22,0.54-0.45,1.04-0.69,1.52c-0.24,0.48-0.46,0.9-0.69,1.28c-0.37,0.64-0.71,1.16-1.02,1.57
			c-0.31,0.4-0.61,0.72-0.9,0.95c-0.29,0.23-0.57,0.39-0.86,0.47c-0.29,0.08-0.59,0.13-0.9,0.13c-0.55,0-0.99-0.16-1.33-0.49
			c-0.34-0.33-0.54-0.75-0.61-1.27c0.42-0.33,0.84-0.69,1.25-1.09c0.42-0.4,0.8-0.81,1.14-1.22c-0.22-0.07-0.46-0.22-0.72-0.46
			C173.26,72.16,172.98,71.7,172.68,71.04z"/>
		<path class="st0" d="M189.57,69.63v3.76c-0.14,0.04-0.37,0.08-0.68,0.12c-0.31,0.04-0.61,0.06-0.91,0.06
			c-0.3,0-0.57-0.02-0.79-0.07c-0.23-0.05-0.42-0.13-0.57-0.24c-0.15-0.12-0.26-0.28-0.34-0.49c-0.08-0.21-0.12-0.48-0.12-0.82
			v-9.23c0-0.27,0.07-0.49,0.23-0.64c0.15-0.15,0.36-0.27,0.62-0.36c0.44-0.16,0.96-0.27,1.55-0.34c0.59-0.07,1.21-0.11,1.88-0.11
			c1.8,0,3.16,0.38,4.07,1.14c0.91,0.76,1.37,1.78,1.37,3.08c0,0.81-0.21,1.5-0.63,2.08c-0.42,0.57-0.91,1.02-1.49,1.33
			c0.47,0.64,0.93,1.24,1.39,1.8c0.46,0.56,0.82,1.07,1.08,1.53c-0.13,0.46-0.37,0.81-0.71,1.05c-0.35,0.24-0.73,0.36-1.17,0.36
			c-0.29,0-0.54-0.03-0.74-0.1c-0.21-0.07-0.39-0.16-0.55-0.27c-0.16-0.12-0.3-0.26-0.43-0.43c-0.13-0.17-0.25-0.35-0.37-0.55
			l-1.65-2.64H189.57z M190.8,67.02c0.5,0,0.89-0.13,1.18-0.38c0.29-0.25,0.43-0.63,0.43-1.13s-0.16-0.87-0.48-1.13
			c-0.32-0.25-0.83-0.38-1.52-0.38c-0.2,0-0.35,0.01-0.47,0.02c-0.12,0.01-0.25,0.03-0.39,0.06v2.94H190.8z"/>
		<path class="st0" d="M197.68,64.08c0.13-0.04,0.34-0.08,0.62-0.12c0.28-0.04,0.57-0.06,0.87-0.06c0.29,0,0.55,0.02,0.77,0.06
			c0.23,0.04,0.42,0.12,0.58,0.23c0.16,0.12,0.28,0.28,0.36,0.48c0.08,0.2,0.13,0.47,0.13,0.79v4.21c0,0.54,0.13,0.92,0.39,1.15
			c0.26,0.23,0.64,0.34,1.14,0.34c0.3,0,0.55-0.03,0.73-0.08c0.19-0.05,0.34-0.1,0.44-0.16v-6.86c0.13-0.04,0.34-0.08,0.62-0.12
			c0.28-0.04,0.57-0.06,0.87-0.06c0.29,0,0.55,0.02,0.77,0.06c0.23,0.04,0.42,0.12,0.58,0.23c0.16,0.12,0.28,0.28,0.36,0.48
			c0.08,0.2,0.13,0.47,0.13,0.79v5.96c0,0.65-0.27,1.14-0.82,1.47c-0.46,0.29-1,0.51-1.64,0.66c-0.63,0.15-1.32,0.23-2.07,0.23
			c-0.71,0-1.36-0.08-1.95-0.24c-0.59-0.16-1.11-0.4-1.54-0.72c-0.43-0.33-0.76-0.75-1-1.26c-0.24-0.52-0.35-1.14-0.35-1.87V64.08z"
			/>
		<path class="st0" d="M212.41,73.45c-0.13,0.04-0.34,0.08-0.62,0.12c-0.28,0.04-0.57,0.06-0.87,0.06c-0.29,0-0.55-0.02-0.77-0.06
			c-0.23-0.04-0.42-0.12-0.58-0.24c-0.16-0.12-0.28-0.28-0.36-0.48c-0.09-0.2-0.13-0.47-0.13-0.79v-5.88c0-0.3,0.06-0.56,0.17-0.77
			c0.11-0.22,0.27-0.41,0.48-0.58c0.21-0.17,0.47-0.32,0.77-0.46c0.31-0.14,0.64-0.26,0.99-0.36c0.35-0.1,0.72-0.19,1.1-0.24
			c0.38-0.06,0.76-0.09,1.14-0.09c0.63,0,1.12,0.12,1.49,0.36c0.37,0.24,0.55,0.64,0.55,1.19c0,0.18-0.03,0.36-0.08,0.54
			c-0.05,0.18-0.12,0.34-0.2,0.48c-0.27,0-0.56,0.01-0.84,0.04c-0.29,0.03-0.57,0.07-0.84,0.12c-0.27,0.05-0.53,0.11-0.77,0.17
			c-0.24,0.06-0.45,0.13-0.62,0.21V73.45z"/>
		<path class="st0" d="M220.75,63.65c0.71,0,1.35,0.07,1.93,0.22c0.58,0.14,1.08,0.36,1.49,0.66c0.41,0.29,0.73,0.67,0.95,1.12
			c0.22,0.45,0.33,0.98,0.33,1.6v4.39c0,0.34-0.1,0.62-0.28,0.83c-0.19,0.22-0.41,0.4-0.68,0.56c-0.85,0.51-2.04,0.76-3.58,0.76
			c-0.69,0-1.32-0.07-1.87-0.2c-0.56-0.13-1.03-0.33-1.43-0.59c-0.4-0.26-0.71-0.59-0.92-1c-0.22-0.4-0.32-0.87-0.32-1.41
			c0-0.9,0.27-1.59,0.8-2.08c0.54-0.48,1.36-0.78,2.49-0.9l2.57-0.27V67.2c0-0.38-0.17-0.65-0.5-0.81
			c-0.33-0.16-0.81-0.25-1.44-0.25c-0.5,0-0.98,0.05-1.45,0.16c-0.47,0.1-0.89,0.24-1.27,0.39c-0.17-0.12-0.31-0.3-0.43-0.54
			c-0.12-0.24-0.18-0.49-0.18-0.75c0-0.34,0.08-0.61,0.24-0.81c0.16-0.2,0.41-0.38,0.75-0.52c0.38-0.14,0.83-0.25,1.34-0.31
			C219.81,63.68,220.29,63.65,220.75,63.65z M220.91,71.35c0.22,0,0.47-0.02,0.73-0.07c0.27-0.05,0.47-0.11,0.6-0.19v-1.57
			l-1.41,0.12c-0.37,0.03-0.67,0.1-0.9,0.24c-0.24,0.13-0.35,0.33-0.35,0.59c0,0.26,0.1,0.47,0.3,0.64
			C220.08,71.27,220.43,71.35,220.91,71.35z"/>
		<path class="st0" d="M230.88,73.45c-0.14,0.03-0.36,0.06-0.64,0.11c-0.28,0.05-0.56,0.07-0.85,0.07c-0.29,0-0.55-0.02-0.77-0.06
			c-0.23-0.04-0.42-0.12-0.58-0.24c-0.16-0.12-0.28-0.28-0.36-0.48c-0.09-0.2-0.13-0.47-0.13-0.79V60.69
			c0.14-0.03,0.36-0.06,0.64-0.11c0.28-0.05,0.56-0.07,0.85-0.07s0.55,0.02,0.77,0.06c0.23,0.04,0.42,0.12,0.58,0.24
			c0.16,0.12,0.28,0.28,0.36,0.48c0.08,0.2,0.13,0.47,0.13,0.79V73.45z"/>
	</g>
</g>
</svg>
